<?xml version="1.0" encoding="utf-8"?>
<!-- Generator: Adobe Illustrator 26.5.0, SVG Export Plug-In . SVG Version: 6.00 Build 0)  -->
<svg version="1.1" id="Layer_1" xmlns="http://www.w3.org/2000/svg" xmlns:xlink="http://www.w3.org/1999/xlink" x="0px" y="0px"
	 viewBox="0 0 924 188.1" style="enable-background:new 0 0 924 188.1;" xml:space="preserve">
<style type="text/css">
	.st0{fill:#2A2077;}
	.st1{fill-rule:evenodd;clip-rule:evenodd;fill:#E7E7F1;}
	.st2{fill:#0D2180;}
</style>
<g id="logo-prototype-variante-3">
	<g id="kosmo-logo-rgb" transform="translate(16.000000, 16.000000)">
		<g id="Group" transform="translate(29.726354, 0.000000)">
			<path id="Path" class="st0" d="M194,80c0,27.8-10,47.9-26.4,55c4.4,1.9,9.2,2.9,14.3,2.9c23.2,0,38.7-19.9,40.6-51.5
				c0.2-2.1,0.2-4.3,0.2-6.5c0-2.2-0.1-4.4-0.2-6.5c-1.9-31.4-17.3-50.1-40.6-50.1c-5.1,0-9.9,0.9-14.3,2.8C184,32.9,194,52,194,80z
				"/>
			<path id="Path_00000083051310580327088340000001802430996387299464_" class="st0" d="M126.7,157.1h28.7
				c-24.7-10.1-40.9-35.1-42.7-70.7c-0.2-2.1-0.2-4.3-0.2-6.5s0.1-4.4,0.2-6.5c2-41.1,23.3-67.2,54.9-73.2C163-0.6,158.2-1,153.2-1
				c-41,0-69.4,30-69.4,80.9C83.9,118.9,100.6,146.4,126.7,157.1z"/>
		</g>
		<path id="Path_00000159429601633990548250000013431333618339388307_" class="st0" d="M440.3,157.1V87.2c0-14.6-2.2-35.4-3.5-50.1
			h1l12.5,36.6l26,70.8h16.6l38.6-107.4h0.9c-1.3,14.6-3.5,35.5-3.5,50.1v69.9h25.6V1.9h-31.5l-27.3,77c-3.4,10-6.5,20.6-9.9,30.9
			h-0.9c-3.4-10.3-6.6-20.9-10.1-30.9l-27.8-77h-31.5v155.2H440.3z"/>
		<g id="Group_00000181060603153012008730000012129286026473876366_" transform="translate(138.169638, 0.000000)">
			<path id="Path_00000059293953261464111970000017013533278329772929_" class="st0" d="M558.2,80c0,27.8-10,47.9-26.4,55
				c4.4,1.9,9.2,2.9,14.3,2.9c23.2,0,38.7-19.9,40.6-51.5c0.2-2.1,0.2-4.3,0.2-6.5c0-2.2-0.1-4.4-0.2-6.5
				c-1.9-31.4-17.3-50.1-40.5-50.1c-5.2,0-10,0.9-14.3,2.8C548.2,32.9,558.2,52,558.2,80z"/>
			<path id="Path_00000119806727792637723870000010579233445308990648_" class="st0" d="M490.9,157.1h28.7
				c-24.7-10.1-40.9-35.1-42.7-70.7c-0.2-2.1-0.2-4.3-0.2-6.5s0.1-4.4,0.2-6.5c2-41.1,23.3-67.2,54.9-73.2
				c-4.5-0.9-9.3-1.3-14.3-1.3c-41,0-69.4,30-69.4,80.9C448,118.9,464.7,146.4,490.9,157.1z"/>
		</g>
		<path id="Path_00000036226334555746867660000003437883601258362002_" class="st0" d="M330.6,137.9c-14.6,0-29.8-7.2-41.1-17.9
			l-16.2,19.1c8.1,8,17.8,14,28.4,18h55.4c18.7-7.7,29.3-23.6,29.3-41.7c0-22.8-13.1-34.7-31.8-42.5L333.5,64
			c-13-5.3-25-9.9-25-22.3c0-11.5,9.8-18.5,24.7-18.5c13.5,0,24.1,5,34.2,13.5l14.3-17.7C369.2,6.6,351.5-1,333.1-1
			c-30.7,0-52.8,19.3-52.8,44.3c0,23,16.3,35.3,31.8,41.7l21.5,9.3c14.3,6.1,24.5,10.2,24.5,23.1C358,130,348.3,137.9,330.6,137.9z"
			/>
		<polygon id="Path_00000150087011187606936690000002112663735815575945_" class="st0" points="11.9,113.4 34.6,85.2 75.9,157.1
			106.6,157.1 51.3,63.3 99.7,1.9 68.7,1.9 12.7,73.5 11.9,73.5 11.9,1.9 -16,1.9 -16,157.1 11.9,157.1 		"/>
	</g>
	<g id="Group-2" transform="translate(193.000000, 26.000000)">
		<rect id="Rectangle" x="578.5" y="32.5" class="st1" width="152.5" height="74.1"/>
		<g id="Beta" transform="translate(4.675000, 3.816000)">
			<path id="Shape" class="st2" d="M594.2,85.4v-40h11.9c2,0,3.9,0.2,5.6,0.5c1.7,0.4,3.1,0.9,4.3,1.7s2.1,1.8,2.8,3
				c0.7,1.2,1,2.7,1,4.5c0,2-0.5,3.8-1.5,5.4s-2.5,2.7-4.4,3.3v0.2c2.4,0.4,4.4,1.5,5.9,3.1c1.5,1.6,2.3,3.8,2.3,6.5
				c0,2-0.4,3.7-1.1,5.1s-1.8,2.7-3.1,3.7s-2.9,1.7-4.8,2.2c-1.9,0.5-3.9,0.7-6.2,0.7H594.2z M599.2,62.4h5.9c3.4,0,5.9-0.6,7.4-1.8
				c1.5-1.2,2.3-2.8,2.3-4.8c0-2.3-0.8-4-2.3-4.9c-1.6-1-3.9-1.5-7-1.5h-6.2V62.4z M599.2,81.4h7c3.5,0,6.1-0.6,8.1-1.9
				c1.9-1.3,2.9-3.3,2.9-5.9c0-2.5-0.9-4.3-2.8-5.5c-1.9-1.2-4.6-1.7-8.1-1.7h-7V81.4z"/>
			<polygon id="Path_00000105422111834794399430000007963837506808050313_" class="st2" points="627.9,85.4 627.9,45.4 650.9,45.4
				650.9,49.6 632.9,49.6 632.9,62.2 648.1,62.2 648.1,66.5 632.9,66.5 632.9,81.1 651.5,81.1 651.5,85.4 			"/>
			<polygon id="Path_00000134951622328056546310000008800016582241621693_" class="st2" points="666.1,85.4 666.1,49.6 654,49.6
				654,45.4 683.3,45.4 683.3,49.6 671.3,49.6 671.3,85.4 			"/>
			<path id="Shape_00000149383354002141861920000001927239682127846275_" class="st2" d="M692.8,63l-1.9,6.1h12l-1.9-6.1
				c-0.7-2.2-1.4-4.5-2.1-6.7c-0.7-2.2-1.3-4.5-2-6.8h-0.2c-0.6,2.3-1.2,4.6-1.9,6.8C694.2,58.5,693.5,60.8,692.8,63z M680.6,85.4
				l13.5-40h5.7l13.5,40H708l-3.8-12.2h-14.6l-3.8,12.2H680.6z"/>
		</g>
	</g>
</g>
</svg>
