<?xml version="1.0" encoding="utf-8"?>
<!-- Generator: Adobe Illustrator 26.4.1, SVG Export Plug-In . SVG Version: 6.00 Build 0)  -->
<svg version="1.1" id="Layer_1" xmlns="http://www.w3.org/2000/svg" xmlns:xlink="http://www.w3.org/1999/xlink" x="0px" y="0px"
	 viewBox="0 0 40 40" style="enable-background:new 0 0 40 40;" xml:space="preserve">
<style type="text/css">
	.st0{fill:#FFFFFF;}
	.st1{fill:#D9042B;}
</style>
<circle id="path-1_00000012450911216746308250000009619096148307627910_" class="st0" cx="20" cy="20" r="20"/>
<path id="path-1_1_" class="st1" d="M20,0.9c10.5,0,19.1,8.6,19.1,19.1S30.5,39.1,20,39.1S0.9,30.5,0.9,20S9.5,0.9,20,0.9 M20,0
	C9,0,0,9,0,20s9,20,20,20s20-9,20-20S31,0,20,0L20,0z"/>
<g id="Oval">
	<path class="st1" d="M20,18c-3.3,0-6-2.7-6-6s2.7-6,6-6c3.3,0,6,2.7,6,6S23.3,18,20,18z M20,7c-2.8,0-5,2.3-5,5s2.3,5,5,5
		c2.8,0,5-2.3,5-5S22.8,7,20,7z"/>
</g>
<g id="Oval-Copy-36">
	<path class="st1" d="M20.1,34c-2.1,0-5-0.2-7.3-1.1c-1-0.4-1.7-0.8-2.1-1.3c-0.5-0.5-0.7-1-0.7-1.6c0-2.6,1-5,2.9-6.9
		c1.9-1.9,4.4-2.9,7-2.9c2.5,0,5.1,1,7.2,2.9c1.9,1.9,3,4.4,3,6.9c0,0.6-0.2,1.1-0.7,1.6c-0.6,0.6-1.2,1-2.1,1.3
		C25.4,33.5,22.8,34,20.1,34z M20,21c-2.4,0-4.7,1-6.4,2.7c-1.7,1.7-2.7,4-2.7,6.3c0,0.4,0.1,0.7,0.5,1c0.3,0.4,0.9,0.8,1.7,1.1
		c1.7,0.7,4.1,1.1,6.9,1.1c2.6,0,5.1-0.4,6.9-1.1c0.7-0.3,1.3-0.6,1.7-1.1c0.3-0.3,0.5-0.6,0.5-1c0-2.3-0.9-4.6-2.7-6.3
		C24.7,21.9,22.3,21,20,21z"/>
</g>
</svg>
